<svg width="24" height="24" viewBox="0 0 24 24" fill="none" xmlns="http://www.w3.org/2000/svg">
<path d="M7 22C6.45 22 5.97933 21.8043 5.588 21.413C5.196 21.021 5 20.55 5 20C5 19.45 5.196 18.979 5.588 18.587C5.97933 18.1957 6.45 18 7 18C7.55 18 8.02067 18.1957 8.412 18.587C8.804 18.979 9 19.45 9 20C9 20.55 8.804 21.021 8.412 21.413C8.02067 21.8043 7.55 22 7 22ZM17 22C16.45 22 15.9793 21.8043 15.588 21.413C15.196 21.021 15 20.55 15 20C15 19.45 15.196 18.979 15.588 18.587C15.9793 18.1957 16.45 18 17 18C17.55 18 18.021 18.1957 18.413 18.587C18.8043 18.979 19 19.45 19 20C19 20.55 18.8043 21.021 18.413 21.413C18.021 21.8043 17.55 22 17 22ZM12 9.5C11.7167 9.5 11.4793 9.404 11.288 9.212C11.096 9.02067 11 8.78333 11 8.5C11 8.21667 11.096 7.979 11.288 7.787C11.4793 7.59567 11.7167 7.5 12 7.5C12.2833 7.5 12.521 7.59567 12.713 7.787C12.9043 7.979 13 8.21667 13 8.5C13 8.78333 12.9043 9.02067 12.713 9.212C12.521 9.404 12.2833 9.5 12 9.5ZM11 6V1H13V6H11ZM7 17C6.23333 17 5.65433 16.6707 5.263 16.012C4.871 15.354 4.86667 14.7 5.25 14.05L6.6 11.6L3 4H2C1.71667 4 1.47933 3.904 1.288 3.712C1.096 3.52067 1 3.28333 1 3C1 2.71667 1.096 2.479 1.288 2.287C1.47933 2.09567 1.71667 2 2 2H3.625C3.80833 2 3.98333 2.05 4.15 2.15C4.31667 2.25 4.44167 2.39167 4.525 2.575L8.55 11H15.55L19.125 4.525C19.2083 4.35833 19.3293 4.229 19.488 4.137C19.646 4.04567 19.8167 4 20 4C20.3833 4 20.671 4.16667 20.863 4.5C21.0543 4.83333 21.0583 5.16667 20.875 5.5L17.3 11.95C17.1167 12.2833 16.875 12.5417 16.575 12.725C16.275 12.9083 15.9333 13 15.55 13H8.1L7 15H18C18.2833 15 18.5207 15.0957 18.712 15.287C18.904 15.479 19 15.7167 19 16C19 16.2833 18.904 16.5207 18.712 16.712C18.5207 16.904 18.2833 17 18 17H7Z" fill="url(#paint0_linear_30_66)"/>
<defs>
<linearGradient id="paint0_linear_30_66" x1="11.0048" y1="1" x2="11.0048" y2="22" gradientUnits="userSpaceOnUse">
<stop stop-color="#F51740" stop-opacity="0.89"/>
<stop offset="0.630208" stop-color="#9A0EC2" stop-opacity="0.89"/>
<stop offset="1" stop-color="#975EFF" stop-opacity="0.89"/>
</linearGradient>
</defs>
</svg>
