<svg width="238" height="250" viewBox="0 0 238 250" fill="none" xmlns="http://www.w3.org/2000/svg">
<path d="M56.9669 248.52L32.2074 210.568L55.9604 174.518H37.6424L16.1037 206.656V174.518H0V248.52H16.1037V214.268L38.6489 248.52H56.9669Z" fill="black"/>
<path d="M95.869 195.662V224.522C95.869 232.028 92.0444 235.411 86.5087 235.411C81.6776 235.411 77.7523 232.345 77.7523 225.791V195.662H62.6551V228.117C62.6551 242.388 71.3108 250 81.4763 250C88.1191 250 93.1515 247.463 95.869 243.551V248.52H110.966V195.662H95.869Z" fill="black"/>
<path d="M154.353 194.182C147.711 194.182 142.678 196.719 139.961 200.63V195.662H124.864V248.52H139.961V219.659C139.961 212.153 143.785 208.771 149.321 208.771C154.152 208.771 158.077 211.836 158.077 218.391V248.52H173.175V216.065C173.175 201.793 164.519 194.182 154.353 194.182Z" fill="black"/>
<path d="M222.903 195.662V200.63C219.581 196.613 214.65 194.182 207.906 194.182C194.721 194.182 183.851 206.339 183.851 222.091C183.851 237.843 194.721 250 207.906 250C214.65 250 219.581 247.568 222.903 243.551V248.52H238V195.662H222.903ZM210.926 234.988C203.981 234.988 198.949 230.02 198.949 222.091C198.949 214.162 203.981 209.193 210.926 209.193C217.87 209.193 222.903 214.162 222.903 222.091C222.903 230.02 217.87 234.988 210.926 234.988Z" fill="black"/>
<path d="M147.329 119.812C159.06 119.812 165.942 106.993 159.229 97.6493L133.916 62.4192C132.168 59.9861 132.176 56.7502 133.936 54.3251L157.236 22.2165C164.012 12.8786 157.137 0 145.375 0L88.0862 0C80.072 0 73.5752 6.31078 73.5752 14.0955C73.5752 14.0955 73.5753 97.6115 73.5752 105.716C73.5751 113.821 79.1744 119.812 88.0399 119.812C96.9055 119.812 147.329 119.812 147.329 119.812Z" fill="#312A7D"/>
<path fill-rule="evenodd" clip-rule="evenodd" d="M73.5752 105.716C73.5751 113.356 78.5499 119.117 86.5456 119.753C110.123 87.2296 133.657 54.7096 157.236 22.2165C164.012 12.8786 157.137 0 145.375 0H88.0862C80.072 0 73.5752 6.31078 73.5752 14.0955V105.716Z" fill="url(#paint0_linear)"/>
<defs>
<linearGradient id="paint0_linear" x1="80.0392" y1="4.53833" x2="165.701" y2="133.886" gradientUnits="userSpaceOnUse">
<stop stop-color="#47D3FF"/>
<stop offset="1" stop-color="#2195EA"/>
</linearGradient>
</defs>
</svg>
