<svg width="24" height="24" viewBox="0 0 24 24" fill="none" xmlns="http://www.w3.org/2000/svg">
<path d="M10.543 1.79279C10.7306 1.60532 10.9849 1.5 11.25 1.5C11.5152 1.5 11.7695 1.60532 11.957 1.79279L14.457 4.29279C14.6445 4.48031 14.7498 4.73462 14.7498 4.99979C14.7498 5.26495 14.6445 5.51926 14.457 5.70679L11.957 8.20679C11.8648 8.3023 11.7544 8.37848 11.6324 8.43089C11.5104 8.4833 11.3792 8.51088 11.2464 8.51204C11.1137 8.51319 10.982 8.48789 10.8591 8.43761C10.7362 8.38733 10.6245 8.31307 10.5306 8.21918C10.4367 8.12529 10.3625 8.01364 10.3122 7.89074C10.2619 7.76784 10.2366 7.63616 10.2378 7.50339C10.2389 7.37061 10.2665 7.23939 10.3189 7.11738C10.3713 6.99538 10.4475 6.88503 10.543 6.79279L11.301 6.03379C9.99041 6.16554 8.74357 6.66442 7.70379 7.47308C6.66401 8.28175 5.8735 9.36738 5.42311 10.6052C4.97272 11.843 4.88073 13.1828 5.15771 14.4706C5.43469 15.7584 6.0694 16.9419 6.9889 17.8851C7.90839 18.8283 9.07536 19.4929 10.3557 19.8025C11.636 20.1122 12.9777 20.0543 14.2266 19.6355C15.4755 19.2168 16.5808 18.4541 17.4157 17.4353C18.2506 16.4164 18.781 15.1826 18.946 13.8758C18.9594 13.7431 18.9992 13.6145 19.0631 13.4975C19.1269 13.3805 19.2135 13.2774 19.3177 13.1943C19.422 13.1112 19.5418 13.0498 19.6701 13.0137C19.7985 12.9776 19.9327 12.9675 20.065 12.984C20.1973 13.0006 20.3249 13.0434 20.4404 13.11C20.5559 13.1765 20.6569 13.2656 20.7375 13.3717C20.8181 13.4779 20.8767 13.5992 20.9097 13.7283C20.9428 13.8575 20.9497 13.9919 20.93 14.1238C20.7171 15.8152 20.0283 17.4113 18.9436 18.7264C17.8588 20.0415 16.4229 21.0215 14.803 21.5524C13.183 22.0832 11.4456 22.143 9.79292 21.7249C8.14026 21.3067 6.64036 20.4278 5.46777 19.1904C4.29518 17.953 3.49813 16.4081 3.16941 14.7353C2.84068 13.0626 2.99379 11.3309 3.61091 9.74178C4.22803 8.15267 5.28378 6.77151 6.65529 5.75905C8.0268 4.74659 9.65765 4.14448 11.358 4.02279L10.543 3.20679C10.3556 3.01926 10.2502 2.76495 10.2502 2.49979C10.2502 2.23462 10.3556 1.98031 10.543 1.79279V1.79279ZM16.207 9.79279C16.3945 9.98031 16.4998 10.2346 16.4998 10.4998C16.4998 10.765 16.3945 11.0193 16.207 11.2068L11.707 15.7068C11.5195 15.8943 11.2652 15.9996 11 15.9996C10.7349 15.9996 10.4806 15.8943 10.293 15.7068L8.29303 13.7068C8.19752 13.6145 8.12134 13.5042 8.06893 13.3822C8.01652 13.2602 7.98894 13.129 7.98778 12.9962C7.98663 12.8634 8.01193 12.7317 8.06221 12.6088C8.11249 12.4859 8.18675 12.3743 8.28064 12.2804C8.37453 12.1865 8.48618 12.1122 8.60908 12.062C8.73197 12.0117 8.86365 11.9864 8.99643 11.9875C9.12921 11.9887 9.26043 12.0163 9.38244 12.0687C9.50444 12.1211 9.61479 12.1973 9.70703 12.2928L11 13.5858L14.793 9.79279C14.9806 9.60532 15.2349 9.5 15.5 9.5C15.7652 9.5 16.0195 9.60532 16.207 9.79279V9.79279Z" fill="url(#paint0_linear_30_46)"/>
<defs>
<linearGradient id="paint0_linear_30_46" x1="11.9707" y1="1.5" x2="11.9707" y2="21.9998" gradientUnits="userSpaceOnUse">
<stop stop-color="#F51740" stop-opacity="0.89"/>
<stop offset="0.630208" stop-color="#9A0EC2" stop-opacity="0.89"/>
<stop offset="1" stop-color="#975EFF" stop-opacity="0.89"/>
</linearGradient>
</defs>
</svg>
