<svg width="60" height="60" viewBox="0 0 60 60" fill="none" xmlns="http://www.w3.org/2000/svg">
<path d="M20.6248 48.75V53.4375C20.6248 53.955 21.0448 54.375 21.5623 54.375H25.3123C25.561 54.375 25.7994 54.2762 25.9752 54.1004C26.1511 53.9246 26.2498 53.6861 26.2498 53.4375V48.75H28.1248V53.4375C28.1248 53.955 28.5448 54.375 29.0623 54.375H32.8123C33.061 54.375 33.2994 54.2762 33.4752 54.1004C33.6511 53.9246 33.7498 53.6861 33.7498 53.4375V48.75H34.0648C41.5348 48.75 46.8748 44.8763 46.8748 38.175C46.8748 32.5425 43.0986 29.4637 38.6773 29.025V28.695C42.3148 27.7875 44.9886 25.0425 44.9886 20.4825C44.9886 14.7375 40.6761 11.25 34.0948 11.25H33.7498V6.5625C33.7498 6.31386 33.6511 6.0754 33.4752 5.89959C33.2994 5.72377 33.061 5.625 32.8123 5.625H29.0623C28.8137 5.625 28.5752 5.72377 28.3994 5.89959C28.2236 6.0754 28.1248 6.31386 28.1248 6.5625V11.25H25.9761V6.5625C25.9761 6.31386 25.8773 6.0754 25.7015 5.89959C25.5257 5.72377 25.2872 5.625 25.0386 5.625H21.5623C21.3137 5.625 21.0752 5.72377 20.8994 5.89959C20.7236 6.0754 20.6248 6.31386 20.6248 6.5625V11.25L13.1323 11.2912C12.8837 11.2912 12.6452 11.39 12.4694 11.5658C12.2936 11.7417 12.1948 11.9801 12.1948 12.2287V15.9375C12.1948 16.4512 12.6073 16.875 13.1248 16.875L15.9561 16.8562C16.6987 16.8612 17.4093 17.1597 17.9327 17.6866C18.4561 18.2135 18.7498 18.9261 18.7498 19.6687V40.3125C18.7498 41.0584 18.4535 41.7738 17.9261 42.3012C17.3986 42.8287 16.6832 43.125 15.9373 43.125L13.1323 43.1662C12.8837 43.1662 12.6452 43.265 12.4694 43.4408C12.2936 43.6167 12.1948 43.8551 12.1948 44.1037V47.8537C12.1948 48.3712 12.6148 48.7912 13.1323 48.7912L20.6248 48.75ZM25.9761 16.8262H32.4223C35.8198 16.8262 37.8148 18.6937 37.8148 21.7462C37.8148 25.0125 35.6586 26.8537 30.7761 26.8537H25.9761V16.8262V16.8262ZM25.9761 32.0175H32.8761C37.1398 32.0175 39.4611 34.1925 39.4611 37.7325C39.4611 41.3063 37.1136 43.17 31.3686 43.17H25.9761V32.0212V32.0175Z" fill="url(#paint0_linear_11_30)"/>
<defs>
<linearGradient id="paint0_linear_11_30" x1="29.5348" y1="5.625" x2="29.5348" y2="54.375" gradientUnits="userSpaceOnUse">
<stop stop-color="#F51740" stop-opacity="0.89"/>
<stop offset="0.630208" stop-color="#9A0EC2" stop-opacity="0.89"/>
<stop offset="1" stop-color="#975EFF" stop-opacity="0.89"/>
</linearGradient>
</defs>
</svg>
