<svg width="24" height="24" viewBox="0 0 24 24" fill="none" xmlns="http://www.w3.org/2000/svg">
<path d="M20 2H10C8.897 2 8 2.897 8 4V8H4C2.897 8 2 8.897 2 10V20C2 21.103 2.897 22 4 22H14C15.103 22 16 21.103 16 20V16H20C21.103 16 22 15.103 22 14V4C22 2.897 21.103 2 20 2ZM4 20V10H14L14.002 20H4ZM20 14H16V10C16 8.897 15.103 8 14 8H10V4H20V14Z" fill="url(#paint0_linear_57_2)"/>
<path d="M6 12H12V14H6V12ZM6 16H12V18H6V16Z" fill="url(#paint1_linear_57_2)"/>
<defs>
<linearGradient id="paint0_linear_57_2" x1="12" y1="2" x2="12" y2="22" gradientUnits="userSpaceOnUse">
<stop stop-color="#F51740" stop-opacity="0.89"/>
<stop offset="0.630208" stop-color="#9A0EC2" stop-opacity="0.89"/>
<stop offset="1" stop-color="#975EFF" stop-opacity="0.89"/>
</linearGradient>
<linearGradient id="paint1_linear_57_2" x1="9" y1="12" x2="9" y2="18" gradientUnits="userSpaceOnUse">
<stop stop-color="#F51740" stop-opacity="0.89"/>
<stop offset="0.630208" stop-color="#9A0EC2" stop-opacity="0.89"/>
<stop offset="1" stop-color="#975EFF" stop-opacity="0.89"/>
</linearGradient>
</defs>
</svg>
