<svg width="24" height="24" viewBox="0 0 24 24" fill="none" xmlns="http://www.w3.org/2000/svg">
<rect width="24" height="24" rx="4" fill="#63E3FF"/>
<path d="M9.49609 6.53973C8.99219 7.01786 8.20508 6.92946 7.77383 6.33884C7.34258 5.82054 7.43008 5.01094 7.96914 4.56737L8.20078 4.37692C9.28516 3.48536 10.6289 3 12.0156 3H13.7109C16.1484 3 18.125 5.03263 18.125 7.50402C18.125 7.96607 18.0664 8.38795 17.957 8.78571H18.75C19.4414 8.78571 20 9.36027 20 10.0714C20 10.7826 19.4414 11.3571 18.75 11.3571H16.1016C16.0352 11.4013 15.9688 11.4415 15.9023 11.4817L13.9258 12.6429H18.75C19.4414 12.6429 20 13.2174 20 13.9286C20 14.6397 19.4414 15.2143 18.75 15.2143H9.80859C9.53125 15.5598 9.375 15.9978 9.375 16.4598C9.375 17.5487 10.2305 18.4286 11.2539 18.4286H12.9844C13.8008 18.4286 14.5977 18.1433 15.2383 17.617L15.4688 17.4241C16.0078 16.946 16.793 17.0705 17.1914 17.625C17.6563 18.1795 17.5703 18.9871 16.9961 19.3969L16.8008 19.6219C15.7148 20.5138 14.3711 21 12.9844 21H11.2539C8.85117 21 6.875 18.967 6.875 16.4598C6.875 16.0339 6.9332 15.6121 7.04414 15.2143H6.25C5.55977 15.2143 5 14.6397 5 13.9286C5 13.2174 5.55977 12.6429 6.25 12.6429H8.89922C8.96484 12.5987 9.03125 12.5585 9.09766 12.5183L11.0742 11.3571H6.25C5.55977 11.3571 5 10.7826 5 10.0714C5 9.36027 5.55977 8.78571 6.25 8.78571H15.1914C15.4336 8.44018 15.625 8.00223 15.625 7.50402C15.625 6.45134 14.7695 5.57143 13.7109 5.57143H12.0156C11.1992 5.57143 10.4023 5.8567 9.76172 6.38304L9.49609 6.53973V6.53973Z" fill="white"/>
</svg>
