<svg width="47" height="47" viewBox="0 0 47 47" fill="none" xmlns="http://www.w3.org/2000/svg">
<g clip-path="url(#clip0_4_28)">
<path d="M23.4824 46.2127C23.0822 46.208 22.6915 46.0921 22.3553 45.8784L0.891539 31.7971C0.610415 31.6213 0.380514 31.3767 0.224366 31.0872C0.068218 30.7977 -0.00881963 30.4733 0.000802595 30.1457V16.0659C-0.00866482 15.7383 0.0684398 15.4139 0.224574 15.1244C0.380708 14.835 0.610523 14.5904 0.891539 14.4145L22.3553 0.334685C22.6891 0.116428 23.0809 0 23.4817 0C23.8824 0 24.2742 0.116428 24.608 0.334685L46.0733 14.4145C46.3543 14.5904 46.5842 14.835 46.7403 15.1244C46.8964 15.4139 46.9735 15.7383 46.9641 16.0659V30.1457C46.9734 30.473 46.8962 30.7972 46.7401 31.0864C46.584 31.3756 46.3542 31.6199 46.0733 31.7955L24.608 45.8784C24.2723 46.0919 23.8821 46.2078 23.4824 46.2127ZM12.7122 25.5043L5.6677 30.1457L21.4614 40.513V31.2579L12.7122 25.5043ZM34.2542 25.5043L25.5003 31.2548V40.513L41.3034 30.1457L34.2589 25.5043H34.2542ZM23.4824 18.412L16.3534 23.1058L23.4824 27.7996L30.6099 23.1058L23.4824 18.412ZM42.9284 19.7784L37.8704 23.1058L42.9252 26.4301V19.7784H42.9284ZM4.03651 19.7784V26.4286L9.09602 23.1058L4.03651 19.7784ZM25.5003 5.69857V14.9567L34.2527 20.7073L41.2972 16.0659L25.5003 5.69857ZM21.4646 5.69857L5.66144 16.0659L12.7059 20.7073L21.4646 14.9567V5.69857Z" fill="url(#paint0_linear_4_28)"/>
</g>
<defs>
<linearGradient id="paint0_linear_4_28" x1="23.4824" y1="0" x2="23.4824" y2="46.2127" gradientUnits="userSpaceOnUse">
<stop stop-color="#F51740" stop-opacity="0.89"/>
<stop offset="0.630208" stop-color="#9A0EC2" stop-opacity="0.89"/>
<stop offset="1" stop-color="#975EFF" stop-opacity="0.89"/>
</linearGradient>
<clipPath id="clip0_4_28">
<rect width="47" height="47" fill="white"/>
</clipPath>
</defs>
</svg>
