<svg width="256" height="256" viewBox="0 0 256 256" fill="none" xmlns="http://www.w3.org/2000/svg">
<path d="M252 128C251.99 139.859 248.465 151.449 241.871 161.307C235.278 171.164 225.911 178.846 214.954 183.383C203.997 187.92 191.941 189.108 180.309 186.797C168.677 184.486 157.991 178.78 149.6 170.4L149.1 169.9L89.2 102.3C84.1381 97.3347 77.7227 93.9749 70.7585 92.6419C63.7944 91.3089 56.5916 92.0621 50.0539 94.8071C43.5163 97.5521 37.9348 102.167 34.0097 108.072C30.0846 113.977 27.9907 120.909 27.9907 128C27.9907 135.091 30.0846 142.023 34.0097 147.928C37.9348 153.833 43.5163 158.448 50.0539 161.193C56.5916 163.938 63.7944 164.691 70.7585 163.358C77.7227 162.025 84.1381 158.665 89.2 153.7L92.3 150.2C94.4085 147.813 97.3788 146.361 100.558 146.165C103.736 145.968 106.863 147.042 109.25 149.15C111.637 151.258 113.089 154.229 113.285 157.408C113.482 160.586 112.408 163.713 110.3 166.1L106.9 169.9L106.4 170.4C100.836 175.976 94.2272 180.399 86.9517 183.417C79.6761 186.435 71.8767 187.989 64 187.989C56.1233 187.989 48.3239 186.435 41.0483 183.417C33.7727 180.399 27.1638 175.976 21.6 170.4C13.2195 162.009 7.51351 151.323 5.20276 139.691C2.89201 128.059 4.08012 116.003 8.61703 105.046C13.1539 94.089 20.8361 84.7222 30.6934 78.1286C40.5506 71.535 52.1408 68.0104 64 68C71.8824 67.9684 79.692 69.5086 86.9722 72.5305C94.2524 75.5525 100.857 79.9956 106.4 85.6L106.9 86.1L166.8 153.7C171.862 158.665 178.277 162.025 185.241 163.358C192.206 164.691 199.408 163.938 205.946 161.193C212.484 158.448 218.065 153.833 221.99 147.928C225.915 142.023 228.009 135.091 228.009 128C228.009 120.909 225.915 113.977 221.99 108.072C218.065 102.167 212.484 97.5521 205.946 94.8071C199.408 92.0621 192.206 91.3089 185.241 92.6419C178.277 93.9749 171.862 97.3347 166.8 102.3L163.7 105.8C161.592 108.187 158.621 109.639 155.442 109.835C152.264 110.032 149.137 108.958 146.75 106.85C144.363 104.742 142.911 101.771 142.715 98.5924C142.518 95.4137 143.592 92.2869 145.7 89.9L149.1 86.1L149.6 85.6C157.991 77.2195 168.677 71.5135 180.309 69.2028C191.941 66.892 203.997 68.0801 214.954 72.617C225.911 77.1539 235.278 84.8361 241.871 94.6934C248.465 104.551 251.99 116.141 252 128Z" fill="url(#paint0_linear_12_32)"/>
<defs>
<linearGradient id="paint0_linear_12_32" x1="128.026" y1="67.9995" x2="128.026" y2="187.989" gradientUnits="userSpaceOnUse">
<stop stop-color="#F51740" stop-opacity="0.89"/>
<stop offset="0.630208" stop-color="#9A0EC2" stop-opacity="0.89"/>
<stop offset="1" stop-color="#975EFF" stop-opacity="0.89"/>
</linearGradient>
</defs>
</svg>
