<svg width="1024" height="1024" viewBox="0 0 1024 1024" fill="none" xmlns="http://www.w3.org/2000/svg">
<path d="M512 64C264.6 64 64 264.6 64 512C64 759.4 264.6 960 512 960C759.4 960 960 759.4 960 512C960 264.6 759.4 64 512 64ZM575.5 439.8C579.9 439.8 583.5 443.4 583.5 447.8V475C583.5 479.4 579.9 483 575.5 483H439.5C439.2 487.4 439.2 492.1 439.2 496.8V532.8H575.4C579.8 532.8 583.4 536.4 583.4 540.8V568C583.4 572.4 579.8 576 575.4 576H444.9C460.2 638 506.2 674.6 574.7 674.6C594.6 674.6 611.8 673.4 626.5 670.5C631.4 669.5 636 673.3 636 678.3V721.1C636 724.9 633.3 728.1 629.6 728.9C613.7 732.3 595.3 734 574.3 734C464.5 734 391.3 675.2 374.1 576H344C339.6 576 336 572.4 336 568V540.8C336 536.4 339.6 532.8 344 532.8H370.1V495.9C370.1 491.5 370.1 487.1 370.4 483.1H344C339.6 483.1 336 479.5 336 475.1V447.9C336 443.5 339.6 439.9 344 439.9H375.7C395.4 345.7 467.7 290 574.3 290C595.2 290 613.7 291.9 629.6 295.4C633.3 296.2 635.9 299.4 635.9 303.2V346H636C636 351.1 631.4 354.8 626.4 353.8C611.7 350.9 594.6 349.4 574.7 349.4C509.3 349.4 464.3 382.9 447.1 439.8H575.5V439.8Z" fill="url(#paint0_linear_30_56)"/>
<defs>
<linearGradient id="paint0_linear_30_56" x1="512" y1="64" x2="512" y2="960" gradientUnits="userSpaceOnUse">
<stop stop-color="#F51740" stop-opacity="0.89"/>
<stop offset="0.630208" stop-color="#9A0EC2" stop-opacity="0.89"/>
<stop offset="1" stop-color="#975EFF" stop-opacity="0.89"/>
</linearGradient>
</defs>
</svg>
