<svg width="24" height="24" viewBox="0 0 24 24" fill="none" xmlns="http://www.w3.org/2000/svg">
<rect width="24" height="24" rx="4" fill="#FFCF52"/>
<path d="M9 7H13C14.1 7 15 7.9 15 9C15 10.1 14.1 11 13 11H9V7ZM14 17H9V13H14C15.1 13 16 13.9 16 15C16 16.1 15.1 17 14 17ZM14 4C14 3.45 13.55 3 13 3C12.45 3 12 3.45 12 4V5H10V4C10 3.45 9.55 3 9 3C8.45 3 8 3.45 8 4V5H6C5.45 5 5 5.45 5 6C5 6.55 5.45 7 6 7H7V17H6C5.45 17 5 17.45 5 18C5 18.55 5.45 19 6 19H8V20C8 20.55 8.45 21 9 21C9.55 21 10 20.55 10 20V19H12V20C12 20.55 12.45 21 13 21C13.55 21 14 20.55 14 20V19C16.21 19 18 17.21 18 15C18 13.55 17.22 12.27 16.06 11.57C16.65 10.88 17 9.98 17 9C17 7.14 15.73 5.57 14 5.13V4Z" fill="white"/>
</svg>
