<svg width="24" height="32" viewBox="0 0 24 32" fill="none" xmlns="http://www.w3.org/2000/svg">
<path d="M7.19375 7.50625C6.3875 8.25 5.12813 8.1125 4.43813 7.19375C3.74813 6.3875 3.88813 5.12813 4.75063 4.43813L5.12125 4.14187C6.85625 2.755 9.00625 2 11.225 2H13.9375C17.8375 2 21 5.16188 21 9.00625C21 9.725 20.9063 10.3813 20.7313 11H22C23.1063 11 24 11.8937 24 13C24 14.1063 23.1063 15 22 15H17.7625C17.6563 15.0688 17.55 15.1313 17.4438 15.1938L14.2812 17H22C23.1063 17 24 17.8937 24 19C24 20.1063 23.1063 21 22 21H7.69375C7.25 21.5375 7 22.2188 7 22.9375C7 24.6313 8.36875 26 10.0063 26H12.775C14.0812 26 15.3563 25.5562 16.3813 24.7375L16.75 24.4375C17.6125 23.6938 18.8688 23.8875 19.5063 24.75C20.25 25.6125 20.1125 26.8688 19.1938 27.5063L18.8813 27.8563C17.1438 29.2438 14.9937 30 12.775 30H10.0063C6.16188 30 3 26.8375 3 22.9375C3 22.275 3.09313 21.6187 3.27063 21H2C0.895625 21 0 20.1063 0 19C0 17.8937 0.895625 17 2 17H6.23875C6.34375 16.9312 6.45 16.8687 6.55625 16.8062L9.71875 15H2C0.895625 15 0 14.1063 0 13C0 11.8937 0.895625 11 2 11H16.3062C16.6937 10.4625 17 9.78125 17 9.00625C17 7.36875 15.6313 6 13.9375 6H11.225C9.91875 6 8.64375 6.44375 7.61875 7.2625L7.19375 7.50625V7.50625Z" fill="white"/>
</svg>
